# xmcd
#
# Track frame offsets:
#	150
#	30422
#	97343
#	111576
#	160062
#	195479
#	248438
#
# Disc length: 3828 seconds
#
# Revision: 2
# Processed by: cddbd v1.5.2PL0 Copyright (c) Steve Scherf et al.
# Submitted via: audiograbber 1.83.01
#
DISCID=530ef207
DTITLE=Ken Follett - Die Spur der Füchse
DYEAR=2007
DGENRE=Hörbuch
TTITLE0=301_15
TTITLE1=302_16
TTITLE2=303_17
TTITLE3=304_18
TTITLE4=305_19
TTITLE5=306_20
TTITLE6=307_21
EXTD=
EXTT0=
EXTT1=
EXTT2=
EXTT3=
EXTT4=
EXTT5=
EXTT6=
PLAYORDER=
